<svg width="22" height="20" viewBox="0 0 22 20" fill="none" xmlns="http://www.w3.org/2000/svg">
<path fill-rule="evenodd" clip-rule="evenodd" d="M15.5463 10.9999C16.2963 10.9999 16.9563 10.5899 17.2963 9.96994L20.8763 3.47994C21.2463 2.81994 20.7663 1.99994 20.0063 1.99994H5.20628L4.26628 -6.10352e-05H0.996277V1.99994H2.99628L6.59628 9.58994L5.24628 12.0299C4.51628 13.3699 5.47628 14.9999 6.99628 14.9999H18.9963V12.9999H6.99628L8.09628 10.9999H15.5463ZM5.00628 17.9999C5.00628 16.8999 5.89628 15.9999 6.99628 15.9999C8.09628 15.9999 8.99628 16.8999 8.99628 17.9999C8.99628 19.0999 8.09628 19.9999 6.99628 19.9999C5.89628 19.9999 5.00628 19.0999 5.00628 17.9999ZM15.0063 17.9999C15.0063 16.8999 15.8963 15.9999 16.9963 15.9999C18.0963 15.9999 18.9963 16.8999 18.9963 17.9999C18.9963 19.0999 18.0963 19.9999 16.9963 19.9999C15.8963 19.9999 15.0063 19.0999 15.0063 17.9999ZM18.3063 3.99994H6.15628L8.52628 8.99994H15.5463L18.3063 3.99994Z" fill="white"/>
</svg>
